<svg xmlns="http://www.w3.org/2000/svg" viewBox="0 0 800 800">
	<title>instagram</title>
	<radialGradient id="rg1" gradientUnits="userSpaceOnUse" cx="51.771" cy="782.405" r="1015.612">
		<stop stop-color="#fa8f21" offset=".09" />
		<stop stop-color="#d82d7e" offset=".78" />
	</radialGradient>
	<radialGradient id="rg2" gradientUnits="userSpaceOnUse" cx="554.083" cy="756.719" r="893.749">
		<stop stop-color="#8c3aaa" offset=".64" stop-opacity="0" />
		<stop stop-color="#8c3aaa" offset="1" />
	</radialGradient>
	<path fill="url(#rg1)" d="M202.84 797.1C155.27 794.94 129.43 787.02 112.24 780.32C89.46 771.45 73.22 760.89 56.13 743.82C39.04 726.75 28.46 710.51 19.64 687.74C12.93 670.55 5.02 644.71 2.85 597.14C0.48 545.71 0 530.28 0 400C0 269.72 0.52 254.31 2.83 202.84C4.99 155.27 12.96 129.47 19.61 112.24C28.48 89.46 39.06 73.22 56.11 56.11C73.18 39.04 89.41 28.43 112.21 19.61C129.4 12.91 155.25 4.99 202.82 2.83C254.26 0.48 269.72 0 399.95 0C530.23 0 545.64 0.52 597.11 2.83C644.68 4.99 670.48 12.96 687.71 19.61C710.49 28.43 726.73 39.04 743.82 56.11C760.92 73.18 771.45 89.44 780.32 112.21C787.02 129.4 794.94 155.25 797.1 202.82C799.45 254.29 799.93 269.69 799.93 399.98C799.93 530.21 799.45 545.66 797.1 597.14C794.94 644.71 786.97 670.55 780.32 687.74C771.45 710.51 760.89 726.75 743.82 743.82C726.75 760.89 710.49 771.45 687.71 780.32C670.53 787.02 644.68 794.94 597.11 797.1C545.69 799.45 530.23 799.93 399.95 799.93C269.72 799.93 254.26 799.48 202.84 797.1" />
	<path fill="url(#rg2)" d="M202.84 797.1C155.27 794.94 129.43 787.02 112.24 780.32C89.46 771.45 73.22 760.89 56.13 743.82C39.04 726.75 28.46 710.51 19.64 687.74C12.93 670.55 5.02 644.71 2.85 597.14C0.48 545.71 0 530.28 0 400C0 269.72 0.52 254.31 2.83 202.84C4.99 155.27 12.96 129.47 19.61 112.24C28.48 89.46 39.06 73.22 56.11 56.11C73.18 39.04 89.41 28.43 112.21 19.61C129.4 12.91 155.25 4.99 202.82 2.83C254.26 0.48 269.72 0 399.95 0C530.23 0 545.64 0.52 597.11 2.83C644.68 4.99 670.48 12.96 687.71 19.61C710.49 28.43 726.73 39.04 743.82 56.11C760.92 73.18 771.45 89.44 780.32 112.21C787.02 129.4 794.94 155.25 797.1 202.82C799.45 254.29 799.93 269.69 799.93 399.98C799.93 530.21 799.45 545.66 797.1 597.14C794.94 644.71 786.97 670.55 780.32 687.74C771.45 710.51 760.89 726.75 743.82 743.82C726.75 760.89 710.49 771.45 687.71 780.32C670.53 787.02 644.68 794.94 597.11 797.1C545.69 799.45 530.23 799.93 399.95 799.93C269.72 799.93 254.26 799.48 202.84 797.1" />
	<path fill="#fff" d="M278.29 106.29C309.99 104.83 320.14 104.49 400.83 104.49C481.52 104.49 491.65 104.84 523.34 106.29C554.95 107.71 576.56 112.75 595.47 120.1C614.99 127.68 631.58 137.83 648.09 154.37C664.61 170.91 674.76 187.48 682.37 207.02C689.72 225.89 694.73 247.51 696.17 279.15C697.61 310.84 697.95 320.97 697.95 401.67C697.95 482.37 697.61 492.48 696.17 524.19C694.76 555.83 689.72 577.43 682.37 596.32C674.76 615.86 664.63 632.45 648.09 648.97C631.55 665.48 614.99 675.64 595.45 683.24C576.56 690.59 554.96 695.61 523.32 697.05C491.63 698.51 481.5 698.85 400.8 698.85C320.09 698.85 309.98 698.49 278.28 697.05C246.64 695.61 225.06 690.59 206.14 683.24C186.58 675.64 170.04 665.47 153.5 648.97C136.96 632.46 126.81 615.86 119.22 596.32C111.88 577.43 106.86 555.83 105.42 524.19C103.95 492.5 103.62 482.37 103.62 401.67C103.62 320.97 103.95 310.84 105.42 279.15C106.86 247.51 111.88 225.91 119.22 207.02C126.81 187.45 136.96 170.89 153.5 154.37C170.04 137.86 186.6 127.68 206.14 120.1C225.02 112.75 246.64 107.73 278.28 106.29M280.74 643.57C312.05 645.01 321.44 645.3 400.8 645.3C480.16 645.3 489.57 645.01 520.89 643.57C549.87 642.25 565.62 637.43 576.08 633.35C589.95 627.95 599.87 621.5 610.26 611.12C620.65 600.73 627.09 590.84 632.49 576.96C636.54 566.5 641.39 550.75 642.71 521.77C644.15 490.42 644.44 481.04 644.44 401.68C644.44 322.32 644.15 312.93 642.71 281.58C641.4 252.61 636.57 236.86 632.49 226.4C627.09 212.52 620.67 202.61 610.26 192.21C599.85 181.82 589.95 175.36 576.08 169.99C565.59 165.94 549.87 161.08 520.89 159.76C489.54 158.34 480.12 158.03 400.8 158.03C321.47 158.03 312.06 158.32 280.74 159.76C251.76 161.07 236.01 165.9 225.55 169.98C211.65 175.36 201.76 181.8 191.37 192.21C180.97 202.62 174.54 212.52 169.14 226.39C165.1 236.88 160.24 252.61 158.92 281.58C157.5 312.93 157.19 322.31 157.19 401.67C157.19 481.03 157.48 490.44 158.92 521.77C160.23 550.74 165.06 566.5 169.14 576.96C174.52 590.83 180.96 600.72 191.37 611.11C201.78 621.51 211.68 627.94 225.55 633.34C236.02 637.42 251.76 642.25 280.74 643.57L280.74 643.57ZM526.5 229.38C528.29 225.06 530.92 221.13 534.23 217.82C537.54 214.51 541.47 211.88 545.8 210.09C550.12 208.3 554.76 207.38 559.44 207.37L559.45 207.37C573.87 207.38 586.87 216.07 592.39 229.4C597.9 242.73 594.85 258.07 584.64 268.26C574.44 278.46 559.1 281.5 545.78 275.98C532.45 270.45 523.77 257.45 523.78 243.02C523.78 238.34 524.7 233.71 526.5 229.38ZM248.2 401.67C248.2 317.38 316.52 249.07 400.8 249.07C485.08 249.07 553.39 317.39 553.39 401.67C553.39 485.95 485.08 554.27 400.8 554.27C316.52 554.27 248.2 485.95 248.2 401.67L248.2 401.67ZM301.75 401.67C301.75 456.38 346.09 500.74 400.8 500.74C455.5 500.74 499.86 456.38 499.86 401.67C499.86 346.96 455.5 302.6 400.8 302.6C346.09 302.6 301.75 346.96 301.75 401.67Z" />
</svg>