<svg xmlns="http://www.w3.org/2000/svg" viewBox="0 0 718 800" width="718" height="800">
	<style>
		tspan { white-space:pre }
		.shp0 { fill: #e30613 } 
		.shp1 { fill: #000000 } 
	</style>
	<path fill-rule="evenodd" class="shp0" d="M3.23 187.47L329.89 0L329.89 347.47L247.42 400.81L331.51 457.37L331.51 800L200.52 732.12L200.52 467.07L132.6 467.07L132.6 682.02L0 610.91L3.23 187.47ZM132.6 260.2L132.6 337.78L221.55 337.78L221.55 229.49L132.6 260.2Z" />
	<path fill-rule="evenodd" class="shp1" d="M386.49 1.62L718 187.47L718 362.02L658.17 400.81L718 433.13L718 609.29L386.49 800L386.49 1.62ZM491.6 227.88L491.6 339.39L587.01 339.39L587.01 273.13L491.6 227.88ZM493.22 468.69L493.22 580.2L585.4 533.33L585.4 468.69L493.22 468.69Z" />
</svg>