<svg xmlns="http://www.w3.org/2000/svg" viewBox="0 0 800 651">
	<title>twitter</title>
	<path fill="#1da1f2" d="M799.93 77.25C770.51 90.3 738.91 99.11 705.68 103.09C739.57 82.79 765.58 50.57 777.84 12.21C746.13 31.04 711 44.71 673.62 52.05C643.67 20.18 601.04 0.22 553.82 0.22C463.2 0.22 389.71 73.76 389.71 164.51C389.71 177.34 391.19 189.82 393.93 201.87C257.47 195 136.59 129.61 55.62 30.26C41.53 54.59 33.42 82.79 33.42 112.82C33.42 169.79 62.42 220.1 106.43 249.54C79.51 248.66 54.21 241.29 32.08 228.98L32.08 231.1C32.08 310.67 88.63 377.05 163.75 392.14C149.94 395.87 135.46 397.85 120.52 397.85C109.95 397.85 99.63 396.86 89.62 394.96C110.51 460.18 171.12 507.7 242.96 508.97C186.76 553.03 115.98 579.3 39.1 579.3C25.85 579.3 12.78 578.52 -0.08 577.01C72.57 623.65 158.82 650.79 251.48 650.79C553.44 650.79 718.5 400.56 718.5 183.54C718.5 176.49 718.33 169.37 718.01 162.32C750.07 139.12 777.91 110.25 799.86 77.36L799.93 77.25Z" />
</svg>