<svg xmlns="http://www.w3.org/2000/svg" viewBox="0 0 800 560">
	<title>youtube</title>
	<path fill="#f00" d="M783.14 87.44C773.98 53.07 746.88 25.96 712.4 16.67C650.05 0 399.9 0 399.9 0C399.9 0 149.88 0 87.41 16.67C53.06 25.84 25.96 52.95 16.67 87.44C0 149.8 0 280 0 280C0 280 0 410.2 16.67 472.56C25.83 506.93 52.93 534.04 87.41 543.33C149.88 560 399.9 560 399.9 560C399.9 560 650.05 560 712.4 543.33C746.75 534.16 773.85 507.05 783.14 472.56C799.81 410.2 799.81 280 799.81 280C799.81 280 799.81 149.8 783.14 87.44Z" />
	<path fill="#fff" d="M320 400.02L527.78 280L320 159.98L320 400.02Z" />
</svg>